<svg width="442" height="62" viewBox="0 0 442 62" fill="none" xmlns="http://www.w3.org/2000/svg">
<path d="M71.0055 35.2933C69.9202 34.3444 68.3585 33.8827 66.2674 33.8827C64.1764 33.8827 63.647 34.2418 62.8264 34.9855C62.0059 35.7293 61.3441 36.5756 60.8941 37.5245V37.345C60.8941 36.6525 60.9735 36.0883 61.1588 35.6523C61.3441 35.2163 61.5294 34.8573 61.7147 34.6008C61.9529 34.2931 62.2176 34.0623 62.5352 33.8827L62.0588 32.9851C60.3912 33.8314 58.6178 34.3444 56.712 34.4982C54.8061 34.6521 52.9533 34.7291 51.1269 34.7291V35.4728C51.6828 35.4728 52.2121 35.678 52.7151 36.0883C53.218 36.4986 53.4827 37.1142 53.4827 37.9348V50.1168C53.4827 50.8349 53.4033 51.4248 53.218 51.8351C53.0327 52.2711 52.8209 52.6045 52.5562 52.861C52.2915 53.1431 51.9739 53.3483 51.6298 53.4765V54.4254H62.747V53.4765C62.4294 53.3483 62.1117 53.1431 61.8206 52.861C61.5823 52.6045 61.3971 52.2711 61.2118 51.8351C61.0265 51.3991 60.9206 50.8349 60.8941 50.1168V45.8083C60.8941 44.3208 61.053 43.0385 61.3706 41.91C61.6882 40.7816 62.0853 39.8583 62.5617 39.0889C63.0382 38.3452 63.5411 37.7553 64.0705 37.3963C64.5999 37.0116 65.0763 36.8321 65.4998 36.8321C66.2145 36.8321 66.691 37.0885 66.9027 37.5758C67.1145 38.0631 67.2998 38.6016 67.4586 39.1915C67.6174 39.7814 67.8821 40.3199 68.2527 40.8072C68.6232 41.2945 69.3114 41.551 70.3173 41.551C71.3231 41.551 71.5878 41.2945 71.9849 40.7816C72.3819 40.2686 72.5672 39.7301 72.5672 39.1402C72.5672 37.5245 72.0378 36.2678 70.9525 35.3189L71.0055 35.2933Z" fill="white"/>
<path d="M97.9815 52.8353C97.7446 52.5789 97.5341 52.2455 97.3498 51.8095C97.1656 51.3735 97.0603 50.8093 97.0603 50.0912V42.346C97.0603 41.4227 96.9551 40.4738 96.7445 39.4993C96.534 38.4991 96.1655 37.6014 95.6129 36.7551C95.0602 35.9088 94.3233 35.2163 93.3495 34.6778C92.4021 34.1392 91.1651 33.8571 89.6913 33.8571C88.2175 33.8571 86.8227 34.1135 85.9542 34.6008C85.0857 35.0881 84.4541 35.601 84.0593 36.1396C84.1646 35.7036 84.2962 35.3189 84.4804 35.0368C84.6646 34.7291 84.8225 34.4982 84.9804 34.3444C85.1383 34.1648 85.3489 34.011 85.5594 33.8827L85.0857 32.9851C83.4803 33.8314 81.6907 34.3444 79.7695 34.4982C77.8483 34.6521 76.006 34.7291 74.2164 34.7291V35.4728C74.7691 35.4728 75.2955 35.678 75.7955 36.0883C76.2955 36.4987 76.5587 37.1142 76.5587 37.9348V50.1168C76.5587 50.8349 76.4798 51.4248 76.2955 51.8351C76.1113 52.2711 75.9008 52.6045 75.6376 52.861C75.3744 53.1431 75.0586 53.3483 74.7165 53.4765V54.4254H85.77V53.4765C85.4542 53.3483 85.1383 53.1431 84.8488 52.861C84.612 52.6045 84.4278 52.2711 84.2435 51.8351C84.0593 51.3991 83.954 50.8349 83.9277 50.1168V42.782C83.9804 42.1921 84.112 41.551 84.2699 40.8842C84.4278 40.2174 84.6646 39.6275 84.9541 39.0633C85.2436 38.5247 85.5858 38.0631 86.0068 37.704C86.4016 37.345 86.849 37.1654 87.349 37.1654C87.8491 37.1654 88.5597 37.5501 89.0334 38.2939C89.5071 39.0376 89.744 40.1917 89.744 41.7305V50.0912C89.744 50.8093 89.6387 51.3991 89.4545 51.8095C89.2703 52.2455 89.0334 52.5789 88.7702 52.8353C88.507 53.1174 88.1912 53.3226 87.8491 53.4508V54.3997H98.9552V53.4508C98.5868 53.3226 98.2973 53.1174 98.0341 52.8353H97.9815Z" fill="white"/>
<path d="M119.463 37.5305C118.627 36.6375 117.599 35.9135 116.356 35.4066C115.113 34.8998 113.703 34.6343 112.125 34.6343C110.548 34.6343 109.138 34.8998 107.919 35.4066C106.7 35.9376 105.672 36.6375 104.835 37.5305C103.999 38.4235 103.353 39.4855 102.923 40.6923C102.493 41.899 102.254 43.1782 102.254 44.5298C102.254 45.8814 102.469 47.1847 102.947 48.3673C103.401 49.5741 104.046 50.6119 104.883 51.5291C105.72 52.4221 106.747 53.1461 107.99 53.653C109.233 54.184 110.596 54.4253 112.125 54.4253C113.655 54.4253 115.209 54.1598 116.452 53.653C117.695 53.1461 118.722 52.4221 119.559 51.5291C120.396 50.6361 121.017 49.5741 121.423 48.3673C121.83 47.1606 122.045 45.8814 122.045 44.5298C122.045 43.1782 121.83 41.8749 121.375 40.6923C120.945 39.4855 120.3 38.4477 119.463 37.5305ZM115.95 47.233C115.758 48.1743 115.496 48.9949 115.137 49.7189C114.778 50.443 114.372 51.0222 113.894 51.4567C113.416 51.8911 112.89 52.1325 112.317 52.1807C111.528 52.1807 110.859 51.8911 110.285 51.3119C109.735 50.7326 109.281 50.0327 108.946 49.2121C108.612 48.3915 108.349 47.5467 108.205 46.6779C108.038 45.809 107.966 45.0608 107.966 44.4333C107.942 43.3954 108.014 42.43 108.229 41.537C108.444 40.644 108.731 39.8717 109.09 39.1959C109.448 38.5201 109.902 37.9891 110.404 37.6029C110.906 37.1926 111.456 36.9996 112.006 36.9513C112.795 36.9513 113.464 37.2168 114.014 37.7478C114.563 38.2787 114.994 38.9304 115.28 39.6786C115.591 40.4268 115.806 41.2232 115.974 42.068C116.117 42.8886 116.189 43.6127 116.189 44.2402C116.213 45.278 116.141 46.2676 115.95 47.2088V47.233Z" fill="white"/>
<path d="M136.02 52.8858C135.784 52.6293 135.573 52.2957 135.363 51.8338C135.152 51.3977 135.047 50.8332 135.047 50.1404V29.0493C135.047 28.3566 135.126 27.7921 135.31 27.3559C135.494 26.9197 135.678 26.5605 135.862 26.3039C136.099 25.996 136.362 25.7651 136.678 25.5855L136.204 24.7388C134.548 25.5598 132.786 26.0473 130.892 26.2013C128.999 26.3552 127.158 26.4322 125.343 26.4322V27.2276C125.896 27.2276 126.421 27.4329 126.921 27.8434C127.421 28.2539 127.684 28.8697 127.684 29.6908V50.1148C127.684 50.8332 127.605 51.4233 127.421 51.8338C127.237 52.27 127.026 52.6036 126.763 52.8602C126.5 53.1424 126.185 53.3477 125.843 53.476V54.4253H136.888V53.476C136.52 53.322 136.231 53.1168 136.02 52.8602V52.8858Z" fill="white"/>
<path d="M162.383 52.2668C162.238 52.4953 161.996 52.5969 161.683 52.5969C161.369 52.5969 161.079 52.4445 160.862 52.1398C160.644 51.8351 160.523 51.124 160.523 50.0066V29.0559C160.523 28.3702 160.596 27.8116 160.765 27.3798C160.934 26.9481 161.103 26.5926 161.32 26.3386C161.538 26.0339 161.779 25.8054 162.069 25.6276L161.634 24.7388C160.113 25.5768 158.495 26.0847 156.757 26.2371C155.018 26.3894 153.328 26.4656 151.662 26.4656V27.2021C152.169 27.2021 152.652 27.4052 153.087 27.8115C153.521 28.2179 153.763 28.8273 153.763 29.64V35.7601C153.207 35.2268 152.483 34.7697 151.638 34.3888C150.793 34.0079 149.73 33.8047 148.451 33.8047C147.171 33.8047 145.215 34.3126 144.032 35.3284C142.825 36.3442 141.907 37.614 141.255 39.1376C140.603 40.6613 140.241 42.3374 140.193 44.115C140.144 45.9181 140.386 47.5687 140.941 49.0924C141.496 50.6161 142.39 51.8859 143.573 52.9016C144.756 53.9174 146.277 54.4253 148.161 54.4253C150.044 54.4253 151.348 54.1968 152.41 53.6889C153.473 53.2064 154.27 52.6477 154.825 52.0382C155.501 52.7493 156.37 53.2826 157.409 53.6381C158.447 53.9936 159.485 54.146 160.523 54.146C161.562 54.146 161.538 54.0698 161.876 53.9428C162.214 53.7905 162.479 53.6381 162.697 53.4603C162.962 53.2826 163.155 53.054 163.276 52.8001L162.6 51.962C162.552 52.089 162.455 52.1906 162.383 52.2414V52.2668ZM153.738 44.7499C153.738 44.7245 153.738 44.8769 153.666 45.2324C153.618 45.5879 153.545 46.045 153.449 46.5783C153.352 47.1116 153.207 47.6957 153.014 48.3306C152.821 48.9654 152.579 49.5495 152.314 50.0828C152.024 50.6161 151.686 51.0732 151.324 51.4287C150.938 51.8097 150.503 51.9874 149.996 51.9874C149.489 51.9874 148.764 51.6065 148.354 50.8701C147.943 50.1336 147.654 49.194 147.461 48.0512C147.292 46.9339 147.219 45.7149 147.292 44.369C147.34 43.0484 147.509 41.8041 147.799 40.6613C148.088 39.5186 148.451 38.579 148.933 37.8425C149.416 37.1061 149.972 36.7251 150.624 36.7251C151.276 36.7251 151.855 37.0807 152.241 37.7917C152.652 38.5028 152.966 39.3154 153.207 40.1788C153.473 41.22 153.666 42.3628 153.787 43.6325V44.6991L153.738 44.7499Z" fill="white"/>
<path d="M191.949 45.8028C191.309 45.0342 190.508 44.3617 189.548 43.8093C188.587 43.2568 187.547 42.7765 186.426 42.3922C185.306 42.0079 184.265 41.6236 183.305 41.2633C182.344 40.903 181.544 40.5187 180.904 40.1104C180.263 39.7021 179.943 39.2458 179.943 38.7174C179.943 38.189 180.157 38.0929 180.557 37.7086C180.957 37.3243 181.757 37.1322 182.905 37.1322C184.052 37.1322 184.932 37.3003 185.466 37.6366C185.999 37.9728 186.426 38.3571 186.8 38.7654C187.173 39.1737 187.547 39.558 187.92 39.8943C188.321 40.2305 188.961 40.3987 189.841 40.3987C190.722 40.3987 190.988 40.0864 191.229 39.486C191.469 38.8855 191.362 38.213 190.962 37.5165C190.562 36.8199 189.761 36.1474 188.614 35.547C187.467 34.9465 185.866 34.6343 183.785 34.6343C181.704 34.6343 181.331 34.7784 180.21 35.0426C179.116 35.3068 178.182 35.6911 177.382 36.1955C176.608 36.6998 175.968 37.3003 175.515 38.0208C175.061 38.7414 174.821 39.558 174.821 40.4707C174.821 41.7677 175.114 42.8725 175.701 43.7612C176.288 44.6499 177.035 45.4185 177.942 46.0189C178.849 46.6194 179.81 47.1238 180.85 47.5321C181.891 47.9404 182.851 48.2766 183.758 48.5889C184.666 48.9011 185.413 49.2134 185.999 49.5256C186.586 49.8378 186.88 50.2221 186.88 50.6545C186.88 51.0868 186.56 51.3029 185.946 51.6392C185.332 51.9755 184.399 52.1196 183.145 52.1196C181.891 52.1196 181.384 51.9274 180.877 51.5431C180.397 51.1588 179.97 50.7505 179.596 50.2702C179.223 49.8138 178.849 49.3815 178.476 48.9972C178.076 48.6129 177.462 48.4208 176.608 48.4208C175.755 48.4208 175.781 48.5649 175.515 48.8531C175.248 49.1413 175.088 49.5256 175.061 49.9579C175.061 50.3902 175.168 50.8946 175.461 51.423C175.728 51.9514 176.208 52.4318 176.875 52.8881C177.542 53.3205 178.396 53.7048 179.49 53.993C180.584 54.2812 181.891 54.4253 183.465 54.4253C185.039 54.4253 186.72 54.2812 187.947 53.969C189.148 53.6567 190.135 53.2484 190.882 52.696C191.629 52.1676 192.162 51.5431 192.482 50.8466C192.803 50.1501 192.963 49.3815 192.963 48.5409C192.963 47.7002 192.643 46.5233 192.002 45.7547L191.949 45.8028Z" fill="white"/>
<path d="M46.235 50.8503C45.6343 51.0826 45.0587 51.3666 44.4581 51.599C43.5821 51.9346 42.9565 51.9346 42.506 51.599C42.3558 51.3924 42.2056 51.1859 42.0555 50.9277C41.9554 50.7728 41.8553 50.5921 41.7802 50.4114C41.7802 50.3598 41.7552 50.334 41.7301 50.2823C41.5049 49.5853 41.3047 48.8624 41.1045 48.1653L34.9979 16.5654C34.8227 15.5327 34.7726 14.6549 34.8978 14.0095C35.0229 13.3383 35.1731 12.8219 35.4233 12.4347C35.6486 11.97 35.9739 11.6085 36.3994 11.3762L36.3243 10.0853C33.9217 10.0853 31.9446 9.80134 30.3429 9.25918C28.7662 8.71702 27.2896 8.12324 25.9632 7.47781C24.6367 6.83239 23.2352 6.26442 21.7836 5.72226C20.3321 5.20592 18.5552 4.94775 16.4279 4.94775C13.1994 4.94775 10.4715 5.56736 8.21904 6.80657C5.96662 8.04578 4.18971 9.5948 2.86328 11.4794C1.56188 13.3641 0.685935 15.3778 0.285504 17.5722C-0.139954 19.7667 -0.0898985 21.7804 0.435667 23.665C0.936206 25.5497 1.88723 27.0987 3.26371 28.3379C4.64019 29.5771 6.44213 30.1967 8.6445 30.1967C10.8469 30.1967 10.2963 29.9386 10.8469 29.448C11.3975 28.9575 11.6728 28.2346 11.6728 27.2794C11.6728 26.3242 11.4475 25.6271 10.972 25.0075C10.5215 24.3879 10.021 23.7683 9.49542 23.1229C8.96985 22.4775 8.46931 21.7546 8.01883 20.9026C7.56834 20.0765 7.31808 18.9405 7.31808 17.5206C7.31808 16.1007 7.59337 14.3193 8.14396 13.0801C8.69456 11.8151 9.39531 10.7824 10.2462 9.95624C11.0971 9.1301 12.0482 8.51049 13.0743 8.14905C14.1004 7.7618 15.1015 7.58108 16.0775 7.58108C17.6042 7.58108 18.9806 8.0716 20.232 9.07847L9.59553 48.3202C9.22012 49.5594 8.81969 50.5147 8.34418 51.1601C8.34418 51.1859 8.29412 51.2117 8.2691 51.2375C5.99165 51.8055 3.93944 52.8382 2.16253 54.4388C1.4868 55.0584 1.26155 55.7297 1.5869 56.1944C2.06242 56.8914 2.68809 56.6333 3.28874 56.3751C6.44213 55.0584 9.5705 55.1617 12.6738 56.6333C13.9252 57.2271 15.1015 57.9758 16.2527 58.7503C16.9284 59.215 17.504 59.1892 18.1798 58.6986C19.9817 57.4336 21.7086 56.0911 23.4104 54.6712C23.8859 54.2839 24.3614 53.8709 24.8119 53.4578C25.0622 53.2254 25.1373 52.8898 25.0121 52.5284C24.862 52.1411 24.5867 51.9604 24.2113 51.9604C23.8609 51.9604 23.5105 51.9862 23.1852 52.1411C22.7347 52.3477 22.2592 52.5284 21.8337 52.7607C21.2581 53.0964 20.7075 53.0705 20.0818 52.8382C18.405 52.1928 16.7032 51.7022 14.9513 51.3924C14.9513 51.2634 14.9263 51.1085 14.9012 50.9536C14.8512 50.2565 15.0013 49.3787 15.3267 48.2944L18.0797 38.3291H28.7161L30.6432 48.3719L31.7193 53.148C31.7193 53.2254 31.7444 53.3029 31.7694 53.3804V53.4578C32.0447 54.5163 32.295 55.5748 32.5703 56.6075C32.6203 56.814 32.6704 57.0205 32.7455 57.2013C33.3962 59.1633 34.5974 59.7055 36.7748 59.1892C37.2002 59.0859 37.6507 58.9568 38.0512 58.7761C39.753 58.0274 41.4048 57.1238 42.9815 56.0911C44.5331 55.0843 46.0848 54.0774 47.3862 52.7349C47.8117 52.296 48.0119 51.8055 47.6115 51.2375C47.2611 50.7212 46.7605 50.6954 46.235 50.9277V50.8503ZM18.9556 34.9212L24.2613 15.6876L28.0654 34.9212H18.9556Z" fill="white"/>
<path d="M171.552 19.8154C170.617 19.8154 169.8 20.0838 169.187 20.6205C168.545 21.1573 168.224 21.7916 168.224 22.5723C168.224 23.353 168.457 23.8166 168.954 24.3045C169.45 24.7925 170.063 25.1096 170.793 25.256C170.793 25.6464 170.647 26.0611 170.355 26.4759C170.063 26.8906 169.596 27.159 168.983 27.3298C168.72 27.403 168.574 27.4518 168.516 27.5005C168.457 27.5737 168.428 27.6225 168.428 27.6713C168.428 27.9153 168.691 28.0373 169.246 28.0373C170.034 28.0373 170.793 27.8909 171.493 27.5737C172.194 27.281 172.778 26.8662 173.274 26.3539C173.77 25.8415 174.15 25.2804 174.412 24.6705C174.675 24.0361 174.821 23.4018 174.821 22.7675C174.821 22.1331 174.5 21.1573 173.828 20.6205C173.186 20.0838 172.398 19.791 171.522 19.791L171.552 19.8154Z" fill="white"/>
<path fill-rule="evenodd" clip-rule="evenodd" d="M311.637 0.0808452C309.037 0.374601 306.713 1.07113 304.317 2.27349C302.205 3.33404 301.014 4.19321 299.384 5.83154C297.643 7.58172 296.549 9.21439 295.7 11.3301L295.364 12.1679L292.817 12.2202C291.31 12.2512 290.228 12.3158 290.166 12.3786C290.045 12.5006 288.171 18.0849 288.251 18.0849C288.28 18.0849 288.499 17.9497 288.738 17.7844C289.853 17.0113 291.631 16.2678 293.528 15.7807C294.628 15.4985 294.671 15.477 294.699 15.1893C294.747 14.7102 295.039 13.2847 295.202 12.7304C295.315 12.345 295.402 12.2202 295.555 12.2202C295.804 12.2202 295.808 12.129 295.511 13.2923C295.375 13.8259 295.23 14.5098 295.19 14.8122C295.105 15.4517 295.049 15.4304 296.337 15.2496C296.98 15.1592 297.154 15.1643 297.222 15.2751C297.332 15.455 297.135 15.5237 296.231 15.6204C295.017 15.75 295.033 15.7345 295.033 16.7774C295.033 19.9756 295.969 23.3151 297.55 25.7552C298.099 26.6024 299.246 28.034 299.376 28.0336C299.412 28.0335 299.58 27.8097 299.749 27.5361C299.918 27.2627 300.218 26.7809 300.415 26.4655L300.775 25.8922L301.206 27.1986L301.638 28.5051L300.341 28.5574L299.043 28.6098L298.257 29.9024L297.471 31.1951L295.033 31.1421C292.065 31.0774 290.572 30.8414 289.135 30.2094C288.525 29.941 287.382 29.1829 287.052 28.8283L286.801 28.5574H289.146C291.757 28.5574 291.521 28.6292 291.668 27.7906C291.759 27.2754 291.966 27.196 293.217 27.196C294.552 27.196 294.682 27.2583 294.791 27.9493L294.879 28.5051L296.898 28.5336C298.008 28.5493 298.981 28.5373 299.059 28.5071C299.156 28.4694 298.983 28.2142 298.511 27.6995C297.235 26.3082 296.148 24.412 295.499 22.4468C294.934 20.7351 294.716 19.4865 294.649 17.5874C294.616 16.6515 294.568 15.8856 294.543 15.8856C294.364 15.8856 292.706 16.3631 291.954 16.6311C290.768 17.0535 289.781 17.5567 288.782 18.2492C288.34 18.5557 287.978 18.7885 287.978 18.7666C287.978 18.7447 288.024 18.6047 288.08 18.4554C288.176 18.2011 288.169 18.1913 287.965 18.3015C287.634 18.4803 286.506 19.6517 286.122 20.2159C285.652 20.9051 285.205 21.9336 285.009 22.7734C284.818 23.5955 284.857 25.4756 285.081 26.2796C285.234 26.8283 285.326 26.8976 285.427 26.5415C285.485 26.3405 285.532 26.3956 285.747 26.9163C285.886 27.252 286.164 27.7587 286.366 28.0421C286.697 28.507 286.712 28.5574 286.523 28.5574C286.323 28.5574 286.321 28.5697 286.484 28.8196C286.753 29.2353 287.85 30.0191 288.787 30.4656C290.523 31.2931 292.505 31.5947 296.205 31.5942L298.197 31.5939L299.737 30.7517C300.958 30.0839 301.307 29.9349 301.422 30.0314C301.545 30.1345 301.572 32.1063 301.594 42.8082L301.62 55.4631L308.7 55.4852C312.594 55.4975 315.805 55.4828 315.835 55.4527C315.942 55.3447 315.94 47.6175 315.833 47.6145C315.776 47.6129 314.399 47.6129 312.772 47.6146C311.146 47.6162 309.755 47.5782 309.682 47.5302C309.585 47.4669 309.556 47.1848 309.578 46.509L309.608 45.5754L312.772 45.5477L315.937 45.5201L315.915 42.5107L315.895 39.5013L312.725 39.4736L309.556 39.4459V38.3493V37.2527L312.746 37.2249L315.937 37.1973L315.922 34.3959L315.907 31.5945H316.518H317.13V40.758V49.9215H320.194H323.259L323.229 46.7272C323.212 44.9705 323.233 43.5331 323.276 43.5331C323.319 43.5332 323.354 43.5754 323.354 43.6271C323.354 43.6788 323.739 44.3739 324.21 45.1719C324.681 45.9699 325.486 47.3644 325.999 48.2707L326.933 49.9186L329.501 49.92L332.068 49.9215V39.606V29.2905H329.008H325.948V32.8512C325.948 34.8095 325.913 36.4115 325.87 36.4112C325.773 36.4104 325.767 36.3993 323.705 32.6015C322.77 30.8801 322.005 29.431 322.005 29.3812C322.005 29.3313 321.72 29.2905 321.372 29.2905C320.907 29.2905 320.752 29.2557 320.79 29.1596C320.856 28.9907 326.866 19.6355 326.993 19.5039C327.052 19.4422 327.089 19.4923 327.089 19.636C327.089 20.2933 327.869 21.2978 328.718 21.7339C329.673 22.2241 331.545 22.5881 333.113 22.5881H333.617L333.25 23.4521C331.994 26.4117 331.868 29.7009 332.958 31.1422C333.252 31.5327 333.417 31.5861 333.417 31.2916C333.417 31.0986 333.427 31.0988 333.806 31.2993C334.361 31.5928 335.388 31.5161 336.155 31.124C336.71 30.8409 338.189 29.5772 338.189 29.3868C338.189 29.331 337.184 29.2905 335.803 29.2905H333.417L333.414 30.1021C333.411 30.7708 333.389 30.8769 333.29 30.7043C333.223 30.5891 333.175 30.2414 333.182 29.9315C333.205 28.8829 333.668 28.0599 338.901 19.7605C340.998 16.4362 342.186 14.4544 342.214 14.2362L342.258 13.8958H339.31C336.422 13.8958 336.114 13.9281 336.114 14.231C336.114 14.277 336.599 14.3147 337.192 14.3147C338.066 14.3147 338.282 14.3453 338.332 14.4753C338.369 14.5746 337.706 15.7432 336.592 17.5385C335.601 19.1349 334.587 20.8116 334.337 21.2644L333.884 22.0876L332.639 22.0148C330.25 21.875 328.961 21.5189 328.25 20.8022C327.7 20.2486 327.582 19.8515 327.635 18.7399C327.675 17.9186 327.733 17.6684 328.014 17.0905L328.347 16.4093H330.088H331.83L332.692 14.9693C333.166 14.1773 333.577 13.4879 333.604 13.4373C333.632 13.3857 333.106 13.3651 332.407 13.3902C331.257 13.4316 331.108 13.4613 330.476 13.7754C329.124 14.4473 328.008 15.7927 327.364 17.5257C327.174 18.0348 326.736 18.8943 326.39 19.4356L325.76 20.4198L325.718 17.9171C325.673 15.2526 325.633 15.0177 325.137 14.4894C324.663 13.9852 324.3 13.8958 322.723 13.8958C321.421 13.8958 321.277 13.9144 321.182 14.0937C321.081 14.2827 321.144 14.2933 322.558 14.3302C324.238 14.3741 324.499 14.4685 324.777 15.1345C324.99 15.6432 324.828 16.4765 324.318 17.5009C324.011 18.1175 316.228 30.6429 315.999 30.8876C315.959 30.9307 315.929 30.6008 315.931 30.1545L315.937 29.3429L314.296 29.314L312.655 29.2852L312.959 28.8951C313.803 27.813 314.313 26.4125 314.398 24.9444C314.514 22.9582 313.811 21.1664 312.282 19.5438C311.52 18.7355 309.914 17.4897 309.421 17.3235C309.357 17.3022 311.054 14.4488 313.192 10.9826L317.078 4.6804L319.789 4.68019L322.5 4.67998L322.562 4.91561C322.768 5.69142 322.519 7.53606 322.047 8.72982C321.023 11.3186 318.997 13.2332 316.351 14.1134C315.724 14.3222 315.394 14.3572 313.919 14.3714C311.992 14.39 311.632 14.533 313.054 14.7144C314.771 14.9335 315.419 14.9571 316.534 14.8418C319.996 14.4836 322.706 12.7472 323.976 10.0733C324.88 8.17069 324.997 6.85921 324.435 4.91561L324.367 4.67998H326.243C328.013 4.67998 328.125 4.66814 328.23 4.47053C328.339 4.26432 328.309 4.26108 326.237 4.26087L324.132 4.26066L323.844 3.80007C323.685 3.54674 323.217 3.01515 322.804 2.61877C321.64 1.50208 320.05 0.749623 317.833 0.265686C316.711 0.0207326 313.117 -0.0864017 311.637 0.0808452ZM311.579 0.508231C307.472 0.976145 303.715 2.55007 300.744 5.04736C298.858 6.63269 297.124 8.97499 296.248 11.1206C295.833 12.1374 295.818 12.2202 296.054 12.2202C296.227 12.2202 296.338 12.455 296.736 13.6602L297.211 15.1002L299.52 15.1054C302.09 15.1113 303.339 15.2564 305.492 15.7999C306.211 15.9814 306.805 16.0821 306.85 16.0301C306.895 15.9795 308.245 13.8117 309.85 11.2129L312.77 6.48775L314.709 5.40059L316.647 4.31344L319.539 4.26108L322.43 4.20871L322.118 3.58036C321.32 1.96863 319.564 0.94944 316.898 0.549912C315.7 0.370307 312.976 0.348943 311.579 0.508231ZM344.793 2.95148C344.128 3.95926 343.584 4.80753 343.584 4.83654C343.584 4.86566 344.272 4.88838 345.114 4.88723L346.644 4.88503L347.681 3.30357C348.252 2.43382 348.805 1.58649 348.911 1.42071L349.102 1.1193H347.553H346.003L344.793 2.95148ZM275.425 19.551V28.5574H279.886H284.347V25.8396V23.1216L283.699 23.0905L283.05 23.0593L283.024 16.802L282.997 10.5446H279.211H275.425V19.551ZM410.832 11.5657C410.858 11.724 410.988 12.3721 411.121 13.0057L411.364 14.1577L408.758 18.1C406.315 21.7973 406.168 22.0456 406.403 22.0909C406.632 22.135 406.877 21.799 409.223 18.2249L411.792 14.3106L413.864 14.3388L415.936 14.3671L416.089 14.6434C416.232 14.9008 416.221 14.9652 415.918 15.5859C415.602 16.2321 414.949 17.0892 412.284 20.3493C409.356 23.9317 408.214 26.0699 408.045 28.2833L407.977 29.1858H407.421H406.866V39.5484V49.9109L409.978 49.9183L413.091 49.9258L413.091 40.4722L413.091 31.0185L413.913 30.3169C414.901 29.4734 416.192 27.9747 417.767 25.842C418.409 24.9733 418.946 24.2748 418.96 24.2898C418.975 24.3047 418.895 24.6938 418.783 25.1543C418.503 26.298 418.479 28.1228 418.728 29.212C418.831 29.6583 418.954 30.0236 419.002 30.0236C419.051 30.0236 419.308 29.9293 419.574 29.8141C419.841 29.6989 420.071 29.6047 420.087 29.6047C420.103 29.6047 420.143 29.8378 420.177 30.1227C420.293 31.1146 420.746 31.5946 421.566 31.5944C422.182 31.5943 423.145 31.0691 423.97 30.2835C424.694 29.5939 424.71 29.5855 424.714 29.88C424.718 30.1696 424.743 30.1546 425.38 29.4708C426.041 28.7614 427.401 26.985 428.218 25.7625C428.628 25.1488 428.829 24.9297 428.908 25.0125C428.927 25.0326 428.845 25.4733 428.726 25.9917C428.557 26.7231 428.507 27.2978 428.502 28.5574C428.497 30.1007 428.51 30.2098 428.771 30.7716C428.922 31.0967 429.182 31.4647 429.349 31.5897L429.654 31.8167L428.901 34.8212C428.206 37.5959 426.801 43.4064 425.711 48.0102L425.259 49.9215H428.146H431.034L431.089 49.6858C431.119 49.5563 431.235 48.9142 431.346 48.259C431.457 47.604 431.57 47.0459 431.596 47.0189C431.623 46.992 432.512 46.9624 433.573 46.9533C435.208 46.9393 435.508 46.9607 435.544 47.0939C435.568 47.1803 435.694 47.8518 435.823 48.5862L436.059 49.9215H439.054C441.858 49.9215 442.045 49.9097 441.993 49.7382C441.879 49.3556 437.719 33.9445 436.991 31.2061L436.484 29.2994L435.843 29.2687L435.202 29.2381L435.882 28.348C437.358 26.4168 439.999 22.2713 439.849 22.1205C439.658 21.9279 439.429 22.2075 438.252 24.0707C436.964 26.1094 436.08 27.3843 435.16 28.5312L434.552 29.2905H432.436H430.32L430.204 29.7356C430.14 29.9803 430.016 30.4375 429.927 30.7514L429.766 31.3222L429.561 31.0669C429.235 30.6595 429.345 29.8373 429.878 28.717C430.47 27.4717 431.367 25.9953 435.478 19.4987L438.991 13.9482L437.634 13.8847C436.833 13.8473 435.852 13.7251 435.239 13.5866C434.324 13.3794 434.001 13.3579 432.49 13.4025C431.101 13.4435 430.588 13.5034 429.77 13.72C425.805 14.7696 422.497 17.4134 420.308 21.2816C420.048 21.7409 419.835 22.1456 419.834 22.1808C419.834 22.2161 419.956 22.2212 420.106 22.1922C420.422 22.1314 420.428 22.1164 419.74 23.0938C419.489 23.4507 419.266 23.7253 419.245 23.7038C419.223 23.6824 419.301 23.4423 419.416 23.1702C419.532 22.8981 419.626 22.6478 419.626 22.6139C419.626 22.5801 418.919 23.5147 418.055 24.691C416.046 27.426 414.983 28.7287 413.961 29.7085L413.142 30.4931L413.112 29.8394L413.081 29.1858H411.166C410.114 29.1858 409.252 29.147 409.252 29.0997C409.252 28.9085 410.368 27.4006 412.171 25.1549C414.926 21.725 415.511 20.9031 416.201 19.4987C416.924 18.0241 417.136 17.2599 417.136 16.1267C417.136 15.4555 417.088 15.2002 416.88 14.7804C416.484 13.9798 416.414 13.9556 414.302 13.8958L412.453 13.8435L413.269 12.6915C413.718 12.0579 414.121 11.4807 414.165 11.4086C414.227 11.3059 413.871 11.2777 412.514 11.2777H410.785L410.832 11.5657ZM357.807 13.538C356.634 13.8565 355.461 14.7003 353.795 16.425C353.164 17.0787 352.166 18.2262 351.579 18.975C350.989 19.7263 350.435 20.3365 350.341 20.3365C350.19 20.3365 350.166 20.0551 350.119 17.7707C350.077 15.6546 350.038 15.1498 349.897 14.8905C349.453 14.0738 348.957 13.8958 347.125 13.8958C345.904 13.8958 345.671 13.9214 345.618 14.0615C345.583 14.1526 345.555 14.2469 345.555 14.271C345.555 14.2951 346.103 14.3159 346.774 14.3173C348.259 14.3203 348.745 14.4229 349.068 14.8009C349.29 15.0606 349.309 15.162 349.266 15.8465C349.227 16.4653 349.142 16.7556 348.804 17.4277C348.576 17.8804 346.538 21.205 344.275 24.8155C342.012 28.426 340.16 31.4283 340.16 31.4872C340.16 31.5561 340.784 31.5945 341.906 31.5945H343.651L345.248 29.1072C346.126 27.7393 347.356 25.8189 347.98 24.8397C349.947 21.7545 352.215 18.7998 354.157 16.7939C355.978 14.9132 357.203 14.1293 358.484 14.0255C359.018 13.9821 359.187 14.0068 359.345 14.1508C359.803 14.569 359.671 15.3537 358.875 16.9533C358.169 18.374 357.572 19.352 351.171 29.5796L350.171 31.1776L350.065 30.2406C350.007 29.7252 349.924 29.2681 349.881 29.2247C349.764 29.1066 348.007 29.5633 347.042 29.9627C343.826 31.2928 341.641 33.6885 340.729 36.8831C339.945 39.629 340.512 42.7489 342.269 45.3633C342.828 46.1952 344.1 47.4763 344.92 48.0322C345.792 48.624 347.332 49.3467 348.045 49.4989C348.601 49.6176 352.943 49.8062 355.281 49.8132L356.448 49.8167V44.5805V39.3442H353.143H349.838L349.771 39.9879C349.734 40.3419 349.704 40.9899 349.703 41.4279C349.702 42.2511 349.631 42.6954 349.502 42.6954C349.461 42.6954 349.118 42.3961 348.739 42.0304C347.912 41.2312 347.422 40.3008 347.422 39.5263C347.422 38.5221 348.212 37.4052 349.339 36.8171L350.015 36.4642L350.015 34.0319L350.016 31.5994L351.794 31.5708L353.573 31.5421L355.971 27.6149C358.573 23.3524 359.765 21.5436 361.247 19.6087C364.015 15.9947 366.236 14.1496 367.97 14.0243C368.62 13.9774 368.692 13.9938 368.94 14.2442C369.674 14.9848 369.078 16.254 366.253 19.9675C363.807 23.1834 362.955 24.637 362.416 26.5136C362.119 27.5491 362.036 29.2905 362.284 29.2905C362.384 29.2905 363.162 30.8639 363.488 31.7242C363.509 31.7792 363.426 31.7701 363.303 31.7039C362.919 31.4963 362.486 30.773 362.293 30.0175L362.107 29.2905H359.536H356.965L356.992 39.5798L357.018 49.8691L360.312 49.8967L363.606 49.9244V46.0795C363.606 43.8023 363.644 42.2751 363.699 42.3341C363.75 42.3889 364.167 43.1392 364.624 44.0016C365.082 44.8642 365.495 45.5826 365.543 45.5983C365.59 45.6139 365.965 45.0025 366.376 44.2396C367.545 42.0671 367.437 41.8703 367.441 46.1775L367.444 49.9215H370.712H373.98V40.8873V31.8531L373.515 31.3987C373.064 30.9567 372.607 30.1621 372.469 29.5785L372.401 29.2905H373.087H373.772L373.783 29.8403C373.789 30.1427 373.826 30.5079 373.867 30.6519C373.934 30.89 373.947 30.8757 374.011 30.4949C374.117 29.8633 374.098 29.3127 373.968 29.269C373.801 29.2128 374.023 28.2029 374.47 26.9865C375.172 25.078 376.418 22.8122 378.203 20.1974C380.606 16.6779 382.506 14.8375 384.511 14.0886C385.025 13.8966 385.357 13.8553 386.429 13.85C387.559 13.8443 387.79 13.8734 388.226 14.0766C388.572 14.238 388.702 14.3509 388.647 14.4431C388.603 14.5165 387.608 16.0375 386.435 17.823C385.262 19.6086 383.648 22.0823 382.85 23.3203C381.165 25.9321 380.324 27.1403 379.409 28.2658C379.048 28.7101 378.752 29.0957 378.752 29.1225C378.752 29.1493 378.857 29.1864 378.985 29.205C379.197 29.2357 379.16 29.302 378.596 29.9057C377.817 30.7404 376.952 31.4191 376.241 31.7533C375.588 32.0602 375.432 32.0751 375.434 31.8301C375.436 31.7067 375.672 31.535 376.158 31.3048C376.682 31.0563 377.128 30.7205 377.79 30.0765L378.7 29.1901L377.04 29.2142L375.38 29.2381L375.351 30.4163L375.322 31.5945H375.037C374.744 31.5945 374.338 31.3727 374.11 31.0879C374.001 30.9523 373.98 30.9967 373.98 31.3614C373.98 31.8753 374.157 32.0124 374.864 32.0446L375.327 32.0657L375.341 40.8365C375.348 45.6605 375.36 49.6662 375.368 49.7382C375.377 49.8392 376.111 49.8755 378.571 49.8967L381.761 49.9245V39.5551V29.1858H380.519H379.278L380.007 28.2694C380.407 27.7655 381.094 26.8254 381.533 26.1803C381.972 25.5353 382.393 25.0051 382.468 25.0021C382.551 24.9989 382.583 25.0685 382.549 25.18C382.223 26.2464 382.134 26.9484 382.129 28.5051C382.124 30.0397 382.144 30.2248 382.363 30.7043C382.494 30.9923 382.722 31.3548 382.869 31.5096C383.049 31.6997 383.113 31.8523 383.065 31.9784C383.026 32.0813 382.967 32.6627 382.935 33.2703C382.841 35.0104 383.014 35.54 384.926 39.3706C385.887 41.297 386.533 42.7122 386.533 42.8923C386.533 43.4184 386.345 43.4775 384.554 43.5161C383.38 43.5414 382.903 43.5878 382.868 43.6803C382.841 43.7513 382.845 45.1846 382.876 46.8655L382.933 49.9215L386.055 49.9208C389.427 49.9202 390.163 49.8508 390.903 49.4631C392.727 48.5082 393.541 47.1748 393.661 44.947C393.757 43.1701 393.464 42.2939 391.263 37.7733C390.308 35.8138 390.101 35.1667 390.373 34.9969C390.487 34.926 391.447 34.8615 392.576 34.8488L393.276 34.841V32.7282V30.6154L393.531 30.8572L393.786 31.099L393.816 30.2294C393.852 29.1865 394.025 29.0268 394.194 29.8788C394.361 30.7185 394.705 31.1324 395.407 31.3384C396.685 31.7135 398.576 31.0537 400.167 29.6773L400.574 29.325L398.455 29.2556C397.29 29.2175 395.832 29.1862 395.215 29.1861L394.093 29.1858L394.16 28.6883C394.385 27.0315 394.874 25.5421 395.877 23.4656L396.591 21.9867L397.709 21.5975C400.359 20.6742 402.649 19.3151 404.023 17.8484C404.983 16.8239 405.433 15.9964 405.49 15.1525C405.611 13.3541 403.847 12.8868 401.112 13.9926C398.097 15.211 395.148 17.9588 393.61 20.9821C393.312 21.5675 393.068 22.0741 393.068 22.1079C393.068 22.1416 393.184 22.1692 393.325 22.1692C393.577 22.1692 393.573 22.1826 393.094 22.9483C392.826 23.3769 392.588 23.7093 392.566 23.6871C392.544 23.6649 392.601 23.4241 392.693 23.152C392.785 22.8799 392.846 22.6429 392.829 22.6255C392.812 22.608 392.406 23.2168 391.927 23.9785C390.817 25.7458 389.715 27.3499 388.925 28.348C388.39 29.0234 388.331 29.1381 388.507 29.1669C388.619 29.1853 388.711 29.2361 388.711 29.2796C388.711 29.4166 387.127 30.9117 386.594 31.2775C386.314 31.4697 385.859 31.714 385.582 31.8202C385.006 32.0411 383.883 32.0783 383.473 31.89C383.161 31.7464 383.164 31.4204 383.476 31.469C384.787 31.6725 385.399 31.5622 386.33 30.9551C386.674 30.7301 387.246 30.2517 387.601 29.8921L388.244 29.2381L387.363 29.2073C385.698 29.149 384.396 29.6374 383.726 30.5721C383.565 30.7963 383.41 31.0356 383.382 31.1038C383.271 31.3691 383.005 30.8171 383.005 30.3216C383.005 29.2456 383.509 28.3437 388.662 20.19L392.606 13.9482L391.255 13.8848C390.487 13.8488 389.479 13.7252 388.919 13.5982C387.715 13.3256 385.654 13.2943 384.324 13.5284C381.393 14.0443 378.5 15.6604 376.318 18.0002C375.423 18.9594 374.219 20.6526 373.71 21.6668C373.465 22.1552 373.461 22.1833 373.654 22.1216C374.039 21.998 373.969 22.2367 373.344 23.1714C372.736 24.08 372.654 24.0666 373.057 23.1246C373.165 22.8724 373.254 22.6413 373.254 22.6109C373.254 22.5805 372.571 23.5643 371.736 24.7973C368.115 30.1473 366.613 31.5945 364.686 31.5945C363.684 31.5945 363.294 31.2191 363.295 30.2543C363.295 29.3101 363.919 28.2462 366.564 24.6826C369.292 21.0064 369.836 20.0805 370.257 18.4019C370.437 17.6846 370.469 17.3077 370.432 16.3634C370.365 14.6692 369.978 13.8807 369.036 13.5175C368.194 13.1927 366.979 13.5227 365.597 14.4518C364.55 15.1557 362.373 17.3695 361.07 19.0545C359.773 20.7325 359.532 20.8136 360.031 19.4046C360.777 17.2965 360.917 15.2936 360.386 14.3147C359.926 13.4672 359.045 13.2018 357.807 13.538ZM403.379 13.9398C401.768 14.4488 399.253 17.3385 396.972 21.302C396.917 21.3973 396.998 21.3936 397.292 21.2872C401.412 19.7935 404.79 17.0963 404.975 15.1532C405.047 14.3942 404.946 14.116 404.532 13.9413C404.107 13.7623 403.942 13.7621 403.379 13.9398ZM431.401 13.9468C429.145 14.5643 427.284 16.281 424.53 20.2841C422.781 22.8265 421.339 25.5008 420.734 27.3261C420.411 28.2987 420.183 29.3633 420.276 29.4578C420.313 29.4953 420.72 29.4495 421.18 29.356C422.146 29.1595 424.603 29.1199 424.779 29.298C424.858 29.3778 425.129 29.1114 425.715 28.3754C426.891 26.9001 427.715 25.6997 430.122 21.9597C431.29 20.1453 432.884 17.6948 433.665 16.514C435.256 14.1098 435.226 14.2493 434.211 13.9451C433.576 13.7547 432.1 13.7556 431.401 13.9468ZM297.416 15.5855C297.414 15.722 300.77 25.839 300.805 25.8006C300.814 25.7905 302.109 23.7098 303.682 21.1769C305.621 18.0559 306.501 16.5491 306.415 16.5017C306.143 16.3517 304.673 15.9842 303.488 15.7696C301.897 15.4818 297.42 15.3461 297.416 15.5855ZM305.468 23.4521L301.869 29.2381L306.932 29.2905L311.994 29.3429L311.335 29.7845C310.096 30.6149 308.723 30.9669 306.734 30.9648C305.16 30.9631 303.96 30.7284 302.571 30.1515C301.625 29.7582 301.559 29.7443 301.588 29.9463C301.654 30.396 303.841 31.1015 305.723 31.2808C308.23 31.5194 310.765 30.8939 312.053 29.7193C312.47 29.3388 312.49 29.2987 312.27 29.2948C312.044 29.2908 312.06 29.253 312.498 28.7619C314.189 26.863 314.388 23.5958 312.961 21.1392C312.508 20.3584 310.939 18.7734 310.009 18.1568C309.602 17.8868 309.224 17.666 309.168 17.666C309.112 17.666 307.447 20.2698 305.468 23.4521ZM287.124 19.7531C285.852 21.1409 285.18 23.029 285.317 24.8357C285.44 26.4626 285.432 26.4742 286.698 22.6442C287.343 20.6913 287.854 19.0768 287.834 19.0564C287.814 19.0361 287.495 19.3496 287.124 19.7531ZM343.11 22.1431C343.05 22.1862 342.354 23.2347 341.564 24.4731C340.152 26.6866 339.161 28.1478 338.582 28.8716C338.292 29.2334 338.291 29.2389 338.512 29.2925C338.719 29.3425 338.693 29.395 338.187 29.9533C336.789 31.4974 335.016 32.2357 333.868 31.7516C333.663 31.6652 333.478 31.5945 333.456 31.5945C333.435 31.5945 333.417 35.7188 333.417 40.7594V49.9245L336.607 49.8967L339.797 49.8691V39.606V29.3429L339.309 29.3111L338.821 29.2794L339.569 28.2639C340.371 27.1752 343.545 22.2731 343.511 22.1754C343.478 22.0791 343.229 22.059 343.11 22.1431ZM293.021 22.7288C292.798 23.4942 292.83 23.6786 293.192 23.7208C293.443 23.7501 293.476 23.7192 293.474 23.459C293.473 23.2967 293.411 22.9284 293.336 22.6404L293.199 22.1168L293.021 22.7288ZM333.776 22.2809C333.738 22.3423 333.73 22.4151 333.757 22.4425C333.784 22.4699 333.834 22.4197 333.868 22.3308C333.938 22.1462 333.878 22.1138 333.776 22.2809ZM405.045 23.7662C403.781 25.6442 402.608 27.1605 401.5 28.3492C400.66 29.2495 400.644 29.277 400.922 29.3095C401.191 29.3408 401.153 29.3886 400.329 30.0565C398.702 31.375 397.482 31.9086 396.093 31.9086C395.226 31.9086 394.605 31.744 394.099 31.3801L393.795 31.1613V33.1059V35.0504H395.299H396.803V42.4675V49.8845L399.915 49.9087L403.028 49.9328V42.4916V35.0504H404.584H406.14V32.1705V29.2905H403.689H401.239L401.923 28.5582C403.099 27.2994 404.731 25.1364 405.972 23.1902C406.533 22.3094 406.546 22.2739 406.302 22.2739C406.092 22.2739 405.877 22.5296 405.045 23.7662ZM391.664 25.2303C390.922 26.3954 389.857 27.911 389.316 28.572C389.098 28.8391 388.919 29.0866 388.919 29.1218C388.919 29.157 389.712 29.1858 390.682 29.1858C392.026 29.1858 392.445 29.1546 392.442 29.0549C392.44 28.9829 392.371 28.6412 392.288 28.2956C392.112 27.5604 392.091 25.9612 392.244 25.0098C392.303 24.6427 392.334 24.3255 392.314 24.3049C392.294 24.2844 392.001 24.7008 391.664 25.2303ZM372.123 25.0314C371.523 25.9534 370.164 27.8585 369.622 28.5386C369.337 28.8952 369.104 29.2102 369.104 29.2387C369.104 29.2672 369.829 29.2905 370.716 29.2905H372.327L372.246 28.7407C372.117 27.8701 372.17 26.275 372.357 25.3731C372.452 24.9177 372.517 24.5327 372.502 24.5175C372.487 24.5025 372.317 24.7337 372.123 25.0314ZM285.066 27.59C284.939 27.9781 284.814 28.3546 284.788 28.4265C284.752 28.5236 284.933 28.5574 285.489 28.5574H286.238L286.046 28.2694C285.941 28.1111 285.729 27.7346 285.576 27.4329L285.297 26.8844L285.066 27.59ZM392.55 29.2416C392.55 29.3103 393.02 30.2264 393.166 30.4425C393.244 30.5571 393.273 30.4081 393.274 29.8927L393.276 29.1858H392.913C392.713 29.1858 392.55 29.2109 392.55 29.2416ZM408.111 29.5337C408.111 30.1257 408.426 30.8652 408.858 31.2887C409.639 32.0541 410.954 32.0973 412.296 31.4015C412.827 31.1262 413.048 30.952 413.071 30.79C413.101 30.5786 413.046 30.5927 412.262 30.9972C410.815 31.7433 409.439 31.6535 409.082 30.7897C408.926 30.4125 408.935 29.8066 409.103 29.3643C409.161 29.2105 409.097 29.1858 408.641 29.1858H408.111V29.5337ZM317.13 30.3901V31.4897H318.194C319.095 31.4897 319.276 31.4617 319.372 31.3065C319.435 31.2057 319.75 30.7109 320.072 30.2069L320.658 29.2905H318.894H317.13V30.3901ZM368.493 29.6164C368.393 29.9049 368.399 29.9269 368.541 29.8083C368.807 29.5853 368.929 29.2905 368.755 29.2905C368.673 29.2905 368.555 29.4371 368.493 29.6164ZM433.963 29.9251C432.766 31.0734 431.769 31.5945 430.769 31.5945C430.525 31.5945 430.209 31.5501 430.068 31.4957C429.866 31.4182 429.797 31.4333 429.746 31.5656C429.632 31.8671 429.885 31.961 430.812 31.961C432.079 31.961 432.772 31.6096 434.134 30.2777C434.998 29.4323 435.1 29.2979 434.876 29.2979C434.701 29.2978 434.404 29.5016 433.963 29.9251ZM367.905 30.4509C367.492 30.8874 366.361 31.6288 365.763 31.8542C365.239 32.0517 364.356 32.1123 363.889 31.983L363.601 31.9034L363.745 32.2464C364.475 33.9898 365.623 36.4069 365.688 36.3393C365.811 36.2105 368.311 30.1283 368.241 30.1283C368.223 30.1283 368.072 30.2735 367.905 30.4509ZM418.324 30.4521C416.004 31.9164 414.384 35.2434 414.073 39.1871C413.896 41.425 414.584 44.2358 415.739 45.9927C416.702 47.4568 417.867 48.4467 419.373 49.0796C420.705 49.6393 421.813 49.8687 423.75 49.9863L424.917 50.0571L424.919 47.9733C424.92 46.8272 424.95 45.4103 424.985 44.8247L425.05 43.7598L424.542 43.6924C422.414 43.4093 421.415 42.7752 420.852 41.3494C420.512 40.4892 420.51 38.7821 420.847 38.0435C421.476 36.6669 422.293 36.1472 424.321 35.8341L424.71 35.774V33.0008V30.2277L424.02 30.8179C422.74 31.9146 421.436 32.2939 420.496 31.8435C420.074 31.6412 419.234 30.7292 419.147 30.3775C419.066 30.0516 418.941 30.0629 418.324 30.4521ZM315.729 31.385C315.694 31.4426 315.714 31.4897 315.775 31.4897C315.835 31.4897 315.885 31.4426 315.885 31.385C315.885 31.3274 315.864 31.2803 315.839 31.2803C315.814 31.2803 315.764 31.3274 315.729 31.385ZM433.494 37.9827C433.466 38.0691 433.273 38.8467 433.066 39.7107C432.859 40.5747 432.665 41.3641 432.635 41.4649C432.585 41.63 432.673 41.6481 433.521 41.6481C434.038 41.6481 434.46 41.6128 434.457 41.5696C434.441 41.2376 433.534 37.8603 433.494 37.9827ZM301.617 56.1911C301.59 56.218 301.568 57.3159 301.568 58.6312V61.0224H371.698H441.827V58.5802V56.138L371.746 56.1402C333.201 56.1413 301.643 56.1643 301.617 56.1911Z" fill="white"/>
</svg>
